<svg width="32" height="32" viewBox="0 0 32 32" fill="none" xmlns="http://www.w3.org/2000/svg">
<path fill-rule="evenodd" clip-rule="evenodd" d="M10.2621 6.06806C10.1787 6.18881 9.40956 11.7092 9.45993 11.8264C9.48617 11.8877 9.54668 11.9378 9.59426 11.9378C9.64192 11.9378 10.0215 11.4718 10.4379 10.9022C11.4017 9.58385 12.7423 8.35206 13.6297 7.96925C14.5723 7.56269 15.1723 7.45906 16.63 7.45109C17.7474 7.44491 17.9442 7.46203 18.0229 7.57231C18.0956 7.67422 17.1764 9.47225 13.5734 16.2759C11.0757 20.9922 9.01987 24.9338 9.00483 25.0348C8.98419 25.1734 9.02731 25.2287 9.17974 25.2594C9.29098 25.2817 11.999 25.311 15.1976 25.3245C21.479 25.3508 21.3146 25.3396 21.9481 25.7809C22.3414 26.0547 22.61 26.0729 22.6739 25.8298C22.7546 25.5235 23.418 20.5577 23.418 20.2606C23.418 19.8034 23.193 19.9442 22.6181 20.761C21.4401 22.4349 20.2633 23.4612 18.8468 24.05C17.8292 24.473 17.3242 24.5481 15.4599 24.5544C13.8711 24.5597 13.8416 24.5568 13.8154 24.3925C13.7998 24.2952 15.7172 20.597 18.3933 15.5624C21.8239 9.10828 22.9766 6.8693 22.9143 6.78091C22.8414 6.67767 22.1155 6.65735 17.287 6.62327L11.7432 6.5842L11.2868 6.39975C11.0358 6.29838 10.7851 6.16646 10.7296 6.10667C10.6161 5.98451 10.3359 5.96138 10.2621 6.06806Z" fill="white"/>
</svg>
