<svg width="32" height="32" viewBox="0 0 32 32" fill="none" xmlns="http://www.w3.org/2000/svg">
<path d="M1.35582 24V22.1214L7.82457 14.011V13.9048H1.56818V11.4545H11.4428V13.4719L5.28445 21.4435V21.5497H11.6552V24H1.35582ZM17.5843 24.2532C16.7893 24.2532 16.0733 24.1116 15.4362 23.8285C14.8046 23.5399 14.3036 23.1152 13.9334 22.5543C13.5686 21.9935 13.3861 21.302 13.3861 20.4798C13.3861 19.7719 13.5168 19.1866 13.7782 18.7237C14.0396 18.2609 14.3962 17.8906 14.8481 17.6129C15.3001 17.3352 15.8092 17.1256 16.3755 16.984C16.9472 16.837 17.538 16.7308 18.1479 16.6655C18.883 16.5893 19.4792 16.5212 19.9366 16.4613C20.394 16.396 20.7261 16.2979 20.933 16.1673C21.1454 16.0311 21.2516 15.8215 21.2516 15.5384V15.4893C21.2516 14.8741 21.0691 14.3976 20.7043 14.06C20.3395 13.7224 19.8141 13.5536 19.128 13.5536C18.4038 13.5536 17.8293 13.7115 17.4046 14.0273C16.9853 14.3432 16.7022 14.7161 16.5552 15.1463L13.7945 14.7543C14.0123 13.992 14.3717 13.3549 14.8727 12.843C15.3736 12.3258 15.9862 11.9392 16.7104 11.6832C17.4346 11.4219 18.235 11.2912 19.1116 11.2912C19.716 11.2912 20.3177 11.362 20.9167 11.5036C21.5156 11.6451 22.0629 11.8793 22.5584 12.206C23.0539 12.5272 23.4514 12.9656 23.7508 13.521C24.0558 14.0763 24.2082 14.7706 24.2082 15.6037V24H21.3659V22.2766H21.2679C21.0882 22.6251 20.835 22.9518 20.5083 23.2567C20.187 23.5562 19.7814 23.7985 19.2913 23.9837C18.8067 24.1634 18.2377 24.2532 17.5843 24.2532ZM18.3521 22.0806C18.9456 22.0806 19.4601 21.9635 19.8957 21.7294C20.3313 21.4898 20.6662 21.174 20.9004 20.782C21.1399 20.3899 21.2597 19.9625 21.2597 19.4996V18.0213C21.1672 18.0975 21.0093 18.1683 20.786 18.2337C20.5682 18.299 20.3232 18.3562 20.0509 18.4052C19.7787 18.4542 19.5091 18.4978 19.2423 18.5359C18.9755 18.574 18.7441 18.6067 18.5481 18.6339C18.107 18.6938 17.7123 18.7918 17.3638 18.9279C17.0153 19.064 16.7403 19.2546 16.5388 19.4996C16.3374 19.7392 16.2366 20.0496 16.2366 20.4308C16.2366 20.9753 16.4354 21.3864 16.8329 21.6641C17.2304 21.9418 17.7368 22.0806 18.3521 22.0806ZM28.5426 24.1797C28.0471 24.1797 27.6224 24.0054 27.2685 23.657C26.9145 23.3085 26.7403 22.8838 26.7457 22.3828C26.7403 21.8928 26.9145 21.4735 27.2685 21.125C27.6224 20.7765 28.0471 20.6023 28.5426 20.6023C29.0218 20.6023 29.4383 20.7765 29.7923 21.125C30.1516 21.4735 30.3341 21.8928 30.3395 22.3828C30.3341 22.715 30.2469 23.0172 30.0781 23.2894C29.9148 23.5617 29.697 23.7795 29.4247 23.9428C29.1579 24.1007 28.8639 24.1797 28.5426 24.1797Z" fill="white"/>
</svg>
