<svg width="32" height="32" viewBox="0 0 32 32" fill="none" xmlns="http://www.w3.org/2000/svg">
<path fill-rule="evenodd" clip-rule="evenodd" d="M1.26213 5.07487C1.1787 5.20769 0.40956 11.2801 0.459933 11.4091C0.486168 11.4765 0.546685 11.5316 0.594259 11.5316C0.64192 11.5316 1.02146 11.0189 1.43791 10.3925C2.40172 8.94224 3.74227 7.58726 4.62973 7.16618C5.57229 6.71896 6.17229 6.60497 7.63003 6.5962C8.7474 6.58941 8.94417 6.60823 9.02288 6.72954C9.09564 6.84164 8.17643 8.81947 4.57341 16.3035C2.07569 21.4914 0.0198746 25.8271 0.00483286 25.9383C-0.0158058 26.0907 0.027308 26.1516 0.179737 26.1853C0.290976 26.2099 2.99901 26.2421 6.19757 26.2569C12.479 26.2859 12.3146 26.2736 12.9481 26.759C13.3414 27.0602 13.61 27.0802 13.6739 26.8128C13.7546 26.4759 14.418 21.0135 14.418 20.6866C14.418 20.1838 14.193 20.3386 13.6181 21.2371C12.4401 23.0784 11.2633 24.2074 9.84685 24.855C8.82917 25.3203 8.32422 25.403 6.45992 25.4098C4.8711 25.4157 4.84162 25.4125 4.81539 25.2317C4.79982 25.1248 6.71721 21.0566 9.39332 15.5186C12.8239 8.41911 13.9766 5.95624 13.9143 5.859C13.8414 5.74544 13.1155 5.72308 8.28697 5.6856L2.74322 5.64262L2.2868 5.43973C2.03582 5.32822 1.78509 5.1831 1.72956 5.11734C1.61613 4.98297 1.33594 4.95752 1.26213 5.07487ZM22.8134 5.20915C20.1716 5.63737 17.6971 7.13446 16.8208 8.8346C16.5967 9.26936 16.5606 9.43468 16.5606 10.0271C16.5606 10.832 16.7274 11.2464 17.1914 11.5943C17.6187 11.9147 18.2934 11.961 18.8281 11.7065C19.4936 11.3898 19.877 10.8633 20.8021 8.99545C21.4568 7.67366 21.7525 7.17271 22.0806 6.82935C22.6096 6.27579 23.1818 6.01229 23.8553 6.01229C25.0342 6.01229 25.7189 6.73108 25.8581 8.11469C25.9469 8.99864 25.851 13.9966 25.7431 14.1019C25.695 14.1489 25.0456 14.3408 24.3001 14.5285C22.7656 14.9148 21.8011 15.2482 20.7306 15.7623C18.0301 17.0593 16.1445 19.1411 15.7636 21.2462C15.3674 23.435 16.3233 25.6181 18.0438 26.4541C19.9028 27.3573 22.2311 26.6288 24.6325 24.3926C25.6336 23.4604 25.7248 23.4415 25.8141 24.1484C25.9765 25.4342 26.6295 26.3707 27.6013 26.7116C28.0512 26.8694 29.1535 26.8627 29.7281 26.6986C30.3681 26.5158 31.2837 25.9753 31.6755 25.549C32.1859 24.9936 32.1304 24.9492 31.249 25.2087C30.501 25.4289 29.729 24.9986 29.5726 24.2742C29.4971 23.9245 29.4879 21.4556 29.5332 13.7668C29.562 8.87372 29.5579 8.72224 29.3814 8.17255C29.1516 7.45676 28.6348 6.66712 28.1299 6.26048C27.6539 5.87697 26.6156 5.3976 25.9617 5.25945C25.2012 5.09877 23.6474 5.07401 22.8134 5.20915ZM25.8285 15.0392C25.8581 15.1149 25.8559 16.8616 25.8237 18.9208L25.7652 22.6647L25.3019 23.0946C24.332 23.9943 23.1365 24.5337 22.0978 24.5403C21.1781 24.5461 20.5552 24.2449 20.08 23.5648C19.4833 22.7106 19.3245 21.0002 19.7092 19.5698C20.2677 17.4934 21.9148 15.9808 24.5717 15.1045C25.4643 14.8101 25.7336 14.7961 25.8285 15.0392Z" fill="black"/>
</svg>
