<svg width="32" height="32" viewBox="0 0 32 32" fill="none" xmlns="http://www.w3.org/2000/svg">
<path d="M6.37629 23.9722H6.4047C7.77821 23.9722 8.91017 23.9167 9.80059 23.8056C10.7384 23.6667 11.4393 23.3611 11.9035 22.8889C12.3771 22.4074 12.7323 21.6713 12.9691 20.6806C13.1112 20.1157 13.2249 19.75 13.3101 19.5833C13.3954 19.4074 13.5091 19.3194 13.6512 19.3194C13.8501 19.3194 13.9732 19.3889 14.0206 19.5278C14.0774 19.6574 14.1058 19.9769 14.1058 20.4861C14.1058 22.1528 14.0869 23.3472 14.049 24.0694C14.0206 24.4769 13.9637 24.7361 13.8785 24.8472C13.8027 24.9491 13.6464 25 13.4096 25C13.3244 25 12.685 24.9815 11.4914 24.9444C10.2979 24.9074 8.95754 24.8889 7.47036 24.8889C6.27683 24.8889 5.15434 24.9074 4.10289 24.9444C3.05145 24.9815 2.48783 25 2.41205 25C2.30786 25 2.21313 24.9537 2.12788 24.8611C2.04263 24.7593 2 24.662 2 24.5694C2 24.5231 2.01421 24.463 2.04263 24.3889C2.08052 24.3148 2.14209 24.1898 2.22734 24.0139C2.31259 23.838 2.38364 23.6852 2.44047 23.5556L9.94268 9.52778C10.3121 8.75926 10.4968 8.33333 10.4968 8.25C10.4968 8.03704 10.1084 7.93056 9.3317 7.93056C8.28973 7.93056 7.48457 7.98148 6.91622 8.08333C5.79846 8.27778 4.96489 8.89352 4.41548 9.93056C4.30181 10.1435 4.17867 10.4491 4.04606 10.8472C3.92291 11.2361 3.79977 11.5324 3.67663 11.7361C3.56296 11.9306 3.40193 12.0278 3.19353 12.0278C2.94725 12.0278 2.82411 11.7824 2.82411 11.2917C2.82411 10.9861 2.85252 10.6435 2.90936 10.2639C2.93778 10.0324 2.9804 9.66667 3.03724 9.16667C3.09407 8.65741 3.14617 8.21296 3.19353 7.83333C3.25037 7.4537 3.30247 7.12963 3.34983 6.86111C3.42561 6.28704 3.59611 6 3.86134 6C3.94659 6 4.01764 6.01852 4.07447 6.05556C4.14078 6.09259 4.18341 6.125 4.20235 6.15278C4.23077 6.1713 4.26866 6.23611 4.31602 6.34722C4.37286 6.44907 4.40601 6.50463 4.41548 6.51389C4.56704 6.89352 4.9933 7.08333 5.69427 7.08333C6.13 7.08333 6.79781 7.08796 7.6977 7.09722C8.60706 7.10648 9.28907 7.11111 9.74375 7.11111C10.1795 7.11111 10.8236 7.10648 11.6761 7.09722C12.5381 7.08796 13.1823 7.08333 13.6085 7.08333C13.8643 7.08333 13.9922 7.15741 13.9922 7.30556C13.9922 7.38889 13.7885 7.83796 13.3812 8.65278C12.4245 10.4491 11.0652 13.0278 9.30328 16.3889C7.5414 19.75 6.46627 21.7963 6.0779 22.5278C5.70848 23.2963 5.52376 23.7037 5.52376 23.75C5.52376 23.8426 5.57586 23.9028 5.68006 23.9306C5.78426 23.9583 6.01633 23.9722 6.37629 23.9722Z" fill="white"/>
<path d="M24.4782 18.75H21.0539C20.7981 18.75 20.6134 18.8148 20.4998 18.9444C20.3956 19.0741 20.2772 19.4074 20.1445 19.9444C20.0498 20.3056 19.9504 20.6759 19.8462 21.0556C19.742 21.4352 19.6614 21.7222 19.6046 21.9167C19.5572 22.1111 19.5099 22.3102 19.4625 22.5139C19.4152 22.7083 19.382 22.8657 19.3631 22.9861C19.3441 23.0972 19.3346 23.1991 19.3346 23.2917C19.3346 23.7639 19.6851 24.0602 20.3861 24.1806C20.8218 24.2546 21.0823 24.3287 21.1676 24.4028C21.2244 24.4583 21.2528 24.537 21.2528 24.6389C21.2528 24.787 21.2055 24.8843 21.1107 24.9306C21.0255 24.9769 20.8881 25 20.6987 25C20.5471 25 20.2487 24.9815 19.8035 24.9444C19.3678 24.9074 19.0363 24.8889 18.8089 24.8889C18.5153 24.8889 18.1364 24.9074 17.6722 24.9444C17.2175 24.9815 16.9665 25 16.9192 25C16.6255 25 16.4787 24.8796 16.4787 24.6389C16.4787 24.4259 16.6539 24.2824 17.0044 24.2083C17.2696 24.162 17.4875 24.0741 17.658 23.9444C17.8285 23.8148 17.9706 23.5694 18.0843 23.2083C19.1547 19.9954 20.5897 15.1111 22.3895 8.55556C22.4179 8.41667 22.4653 8.23148 22.5316 8C22.5979 7.75926 22.6453 7.58796 22.6737 7.48611C22.7211 7.23611 22.8016 7.0463 22.9152 6.91667C23.0384 6.77778 23.242 6.70833 23.5262 6.70833C23.7914 6.70833 23.9714 6.75463 24.0661 6.84722C24.1703 6.93981 24.2603 7.11111 24.3361 7.36111C26.5906 14.6296 28.2009 19.7917 29.1671 22.8472C29.4134 23.662 29.7544 24.1157 30.1901 24.2083C30.228 24.2176 30.299 24.2361 30.4032 24.2639C30.5074 24.2917 30.5832 24.3148 30.6306 24.3333C30.6874 24.3519 30.749 24.3796 30.8153 24.4167C30.8816 24.4444 30.929 24.4815 30.9574 24.5278C30.9858 24.5741 31 24.6296 31 24.6944C31 24.8981 30.7679 25 30.3038 25C30.048 25 29.6549 24.9815 29.1244 24.9444C28.6035 24.9074 28.2009 24.8889 27.9167 24.8889C27.6231 24.8889 27.1921 24.9074 26.6237 24.9444C26.0554 24.9815 25.6623 25 25.4444 25C25.0181 25 24.805 24.8796 24.805 24.6389C24.805 24.3704 25.056 24.2176 25.5581 24.1806C25.738 24.1713 25.8849 24.1528 25.9985 24.125C26.1122 24.088 26.2164 24.0185 26.3111 23.9167C26.4153 23.8056 26.4674 23.6574 26.4674 23.4722C26.4674 23.3611 26.4295 23.1759 26.3537 22.9167C26.278 22.6574 26.1501 22.2361 25.9701 21.6528C25.7996 21.0694 25.6433 20.5185 25.5012 20C25.3307 19.4352 25.1934 19.088 25.0892 18.9583C24.985 18.8194 24.7813 18.75 24.4782 18.75ZM21.3665 17.8889H24.1088C24.4971 17.8889 24.6913 17.8056 24.6913 17.6389C24.6913 17.6019 24.6487 17.3935 24.5634 17.0139C23.9951 15.2639 23.512 13.6806 23.1142 12.2639C22.9815 11.7639 22.8347 11.5139 22.6737 11.5139C22.5884 11.5139 22.5174 11.5833 22.4606 11.7222C22.4037 11.8519 22.3232 12.125 22.219 12.5417C21.8591 13.9028 21.4612 15.3333 21.0255 16.8333C20.9023 17.3241 20.8408 17.6111 20.8408 17.6944C20.8408 17.8241 21.016 17.8889 21.3665 17.8889Z" fill="white"/>
</svg>
