<svg width="146" height="4" viewBox="0 0 146 4" fill="none" xmlns="http://www.w3.org/2000/svg">
<path fill-rule="evenodd" clip-rule="evenodd" d="M144.378 0.028707C144.378 0.028707 144.214 0.0630666 144.009 0.0964717C143.807 0.0916988 143.562 0.124149 143.441 0.121286C143.318 0.1566 143.156 0.152782 143.154 0.19096C143.111 0.228183 143.071 0.227229 142.99 0.225319C142.95 0.224365 142.869 0.222456 142.786 0.258725C142.622 0.293084 142.296 0.323626 142.051 0.356076C141.928 0.391391 141.681 0.462019 141.479 0.457246C141.315 0.491606 141.073 0.485878 140.949 0.521193C140.828 0.518329 140.704 0.553643 140.664 0.552689C140.621 0.589912 140.419 0.585139 140.215 0.618544C139.078 0.668172 138.631 0.69585 137.936 0.832334C137.853 0.868603 137.531 0.822788 137.206 0.85333C136.922 0.846647 136.559 0.838056 136.435 0.873371C136.271 0.90773 136.029 0.902003 135.867 0.898185C135.179 0.881957 134.447 0.94113 133.962 0.929675C133.228 1.02703 132.66 1.05184 131.77 1.03084C131.366 1.02129 130.88 1.00984 130.757 1.04515C130.636 1.04229 130.431 1.07569 130.31 1.07283C130.189 1.06997 130.027 1.06615 129.984 1.10337C129.984 1.10337 129.497 1.1301 129.012 1.11864C128.486 1.10623 128.001 1.09478 127.918 1.13104L126.421 1.09573C126.136 1.12722 124.676 1.16921 123.827 1.14917C123.663 1.18353 123.176 1.21025 122.774 1.16252C122.367 1.19116 121.758 1.21502 121.392 1.2446C121.067 1.27514 120.584 1.22551 120.379 1.25892C120.177 1.25414 119.811 1.28373 119.57 1.23983C119.328 1.2341 119.085 1.22837 119.002 1.26464C118.921 1.26273 118.636 1.29423 118.355 1.24937C118.07 1.28086 117.704 1.31045 117.58 1.34576L117.095 1.33431C116.933 1.33049 116.772 1.32667 116.77 1.36485C116.729 1.36389 116.323 1.39253 115.799 1.34194C115.312 1.36866 114.829 1.31903 114.746 1.3553C114.665 1.35339 114.379 1.38488 114.096 1.3782C113.773 1.37057 113.53 1.36484 113.488 1.40206C113.445 1.43929 113.12 1.46983 112.758 1.42306C112.432 1.4536 111.987 1.4431 111.783 1.4765C111.583 1.43355 111.217 1.46314 110.974 1.45741C110.729 1.48986 110.246 1.44023 109.961 1.47173C108.582 1.51563 108.378 1.54903 108.178 1.50608C108.054 1.54139 107.609 1.53089 107.162 1.55857C106.111 1.53375 105.745 1.56334 105.581 1.5977C105.5 1.59579 105.298 1.59102 105.094 1.62442C104.892 1.61965 104.408 1.57002 103.961 1.59769C103.519 1.54901 102.829 1.57097 102.384 1.56046C101.939 1.54996 101.49 1.61582 101.45 1.61487C101.41 1.61391 100.922 1.64063 100.396 1.62822C99.2238 1.60054 98.5363 1.58431 98.4938 1.62154C98.4512 1.65876 97.8446 1.64444 97.1167 1.62726L95.7014 1.59385C95.578 1.62916 95.0927 1.61771 94.5691 1.56712C94.0413 1.59289 93.5539 1.61961 93.5113 1.65684L92.7026 1.63774C91.732 1.61483 91.6916 1.61388 91.4915 1.57093L91.168 1.56329C91.1255 1.60051 90.8424 1.59383 90.5168 1.62437C90.1933 1.61674 89.8697 1.6091 89.7463 1.64441C89.6655 1.64251 89.259 1.67114 88.8567 1.62341C88.4927 1.61482 88.0883 1.60528 88.0458 1.6425L86.9539 1.61673C86.4687 1.60527 85.9834 1.59382 85.9409 1.63104C85.9004 1.63009 85.5323 1.69785 85.1704 1.65108L84.3212 1.63103C84.2382 1.6673 83.9956 1.66158 83.7934 1.6568C83.4315 1.61003 81.8523 1.61098 81.6076 1.64343L80.7179 1.62243C80.3135 1.61289 79.9879 1.64343 79.9879 1.64343C79.9475 1.64247 79.3813 1.62911 78.6555 1.57375C77.1572 1.57661 76.9954 1.57279 75.9824 1.5871C75.495 1.61383 74.8096 1.55942 74.4457 1.55083C72.2216 1.49833 71.0488 1.47064 70.9254 1.50596C70.8062 1.46492 69.9123 1.52027 68.863 1.45727C67.852 1.43341 66.924 1.37328 66.8432 1.37137C66.8411 1.40954 65.911 1.38759 64.7403 1.32173C63.4867 1.29214 62.6801 1.23487 62.5971 1.27114C62.5545 1.30836 62.4332 1.3055 62.2331 1.26254C62.1118 1.25968 61.9522 1.21768 61.8671 1.29213C61.7862 1.29022 60.8582 1.23009 59.7664 1.20431C58.6766 1.14036 57.6635 1.15468 57.4592 1.18808C57.2571 1.18331 57.057 1.14036 56.9356 1.13749C56.0076 1.07736 53.7431 1.0239 53.6197 1.05922C53.5771 1.09644 52.7683 1.07735 51.7999 1.01626C50.8294 0.993352 50.0227 0.936082 49.9802 0.973305C49.9397 0.972351 49.3289 1.03439 48.5627 0.978073C47.8369 0.922712 47.1473 0.944663 47.026 0.941799C46.8642 0.937981 44.9211 0.930339 44.7189 0.925566C44.6401 0.885478 44.4762 0.919838 44.3549 0.916974C44.1932 0.913156 43.7867 0.941788 43.4653 0.895974C43.1418 0.888337 42.7353 0.916969 42.5331 0.912196C42.3309 0.907423 41.6818 0.930328 41.0347 0.915055C38.7297 0.860643 36.3396 0.880679 36.2183 0.877815C36.0544 0.912175 34.7987 0.920761 34.1538 0.86731C33.543 0.929347 32.2085 0.897846 32.0468 0.894027C31.9638 0.930296 31.6807 0.923614 31.3976 0.916932L30.7506 0.901659C30.6272 0.936973 29.9802 0.9217 28.9267 0.935059L28.4818 0.924558C28.4393 0.961782 27.2645 0.972277 26.4578 0.915007C26.0917 0.944594 25.7257 0.974181 25.6427 1.01045C25.4788 1.04481 24.2252 1.01522 23.0929 0.988489C22.729 0.979898 22.365 0.971306 22.282 1.00758C22.1182 1.04193 21.1434 1.09538 19.9303 1.06674C19.528 1.01902 19.2024 1.04956 19.1619 1.04861C19.1194 1.08583 18.351 1.06769 16.9336 1.07246C16.0035 1.05051 15.7587 1.08296 15.1117 1.06768C14.7478 1.05909 14.3817 1.08868 14.3413 1.08772C14.2583 1.12399 13.8518 1.15262 13.4879 1.14403C13.0814 1.17267 12.313 1.15453 11.7873 1.14212C11.2616 1.12971 10.4933 1.11157 10.1677 1.14211C9.80159 1.1717 9.43764 1.16311 9.39721 1.16215C9.31422 1.19842 8.90983 1.18888 8.4629 1.21656C8.02018 1.16788 7.65412 1.19746 7.65412 1.19746C7.61368 1.19651 7.44982 1.23087 7.3285 1.228C6.64315 1.1736 5.10226 1.21368 4.81919 1.207C4.65533 1.24136 4.29138 1.23277 4.0062 1.26426C3.44005 1.2509 2.78882 1.31198 2.50575 1.3053C2.42487 1.30339 2.09925 1.33393 1.85241 1.40456C0.720116 1.37783 0.0903647 1.78347 0.00780164 2.54608C-0.0747614 3.30869 0.504441 3.81932 1.43875 3.76492C1.60261 3.73056 1.88989 3.66088 2.05165 3.6647C2.17297 3.66757 2.6199 3.63989 2.98596 3.6103C3.35201 3.58072 3.7564 3.59026 3.87772 3.59313C3.99903 3.59599 4.12246 3.56067 4.1629 3.56163C4.24588 3.52536 4.61194 3.49577 5.05466 3.54445C6.27204 3.49673 6.9616 3.47478 7.44687 3.48624C7.69161 3.45379 8.13644 3.46429 8.4174 3.50915C8.66004 3.51488 8.94311 3.52156 8.98565 3.48433C9.06864 3.44806 9.51136 3.49674 10.0817 3.43375C10.6074 3.44616 11.3374 3.42517 11.6993 3.47193C12.0653 3.44235 12.7911 3.49771 13.2785 3.47099C13.8084 3.40704 14.2916 3.45667 14.3746 3.4204C14.4575 3.38413 14.7406 3.39082 14.9832 3.39654C15.2238 3.44045 15.4664 3.44618 15.5494 3.40991C15.5898 3.41086 16.0368 3.38319 16.6008 3.43473C17.1286 3.40896 17.7331 3.46146 17.9395 3.38987C18.3864 3.3622 19.44 3.34884 20.2487 3.36793C20.5318 3.37461 20.7723 3.41852 20.8553 3.38225C20.8957 3.3832 21.2214 3.35266 21.5853 3.36125C21.9514 3.33166 22.3558 3.34121 22.4792 3.3059C22.9261 3.27822 23.9371 3.30208 24.5841 3.31736C24.9502 3.28777 25.7185 3.30591 26.2889 3.24291C26.8125 3.2935 27.6233 3.27442 28.0682 3.28492C28.5151 3.25724 28.9174 3.30496 28.9983 3.30687C29.0408 3.26965 29.3239 3.27633 29.6091 3.24483C29.8517 3.25056 30.1752 3.2582 30.2582 3.22193C30.6647 3.1933 31.8779 3.22193 32.444 3.2353C32.7675 3.24294 33.2102 3.29161 33.455 3.25916C33.6593 3.22576 34.0253 3.19617 34.2296 3.16277C34.4297 3.20572 34.9554 3.21813 35.4428 3.1914C35.8855 3.24008 36.5346 3.21718 36.856 3.26299C37.1817 3.23245 37.5477 3.20286 37.6286 3.20477C37.7904 3.20859 39.2078 3.20382 41.0701 3.20956C41.432 3.25633 41.8385 3.22769 41.9619 3.19238C42.0449 3.15611 42.7707 3.21147 43.5794 3.23056C45.5226 3.2382 46.7379 3.22866 46.938 3.27162C47.1423 3.23821 49.8517 3.30217 50.2156 3.31076C50.3348 3.3518 50.4562 3.35466 50.4987 3.31744C50.5817 3.28117 51.2287 3.29645 52.0758 3.35467C52.842 3.41098 53.5721 3.38999 53.6125 3.39094C53.655 3.35372 54.5447 3.37472 55.5961 3.39954C56.6454 3.46254 57.4946 3.48258 57.5351 3.48354C57.5755 3.48449 58.1054 3.42055 58.7099 3.47304C60.0827 3.54368 61.8216 3.58472 62.1876 3.55514C62.3494 3.55896 63.2774 3.61909 64.2884 3.64295C65.2568 3.70404 66.1485 3.68686 66.189 3.68782C66.272 3.65155 66.8381 3.66491 67.483 3.71837C68.8963 3.78995 70.7969 3.83482 71.4056 3.81096C72.0101 3.86346 73.8745 3.83101 75.9348 3.91787C76.784 3.93792 77.6311 3.99614 77.7545 3.96083C77.9205 3.88829 78.244 3.89593 78.4866 3.90166C78.7271 3.94556 78.9719 3.91311 79.0528 3.91502C79.1762 3.87971 79.2166 3.88066 79.255 3.91979C79.3337 3.95988 79.736 4.0076 79.819 3.97134C79.819 3.97134 80.2659 3.94366 80.8342 3.91884C81.3578 3.96943 81.8452 3.94271 81.9281 3.90644C82.0878 3.94844 83.3031 3.9389 83.9522 3.91599C84.2736 3.96181 84.9227 3.9389 85.4059 3.98853C86.8659 3.94654 87.5959 3.92555 89.1305 4C89.9818 3.98187 90.7927 3.96278 90.9161 3.92747L92.8976 3.97424C93.5042 3.98856 94.032 3.96279 94.0746 3.92557C94.115 3.92652 94.2767 3.93034 94.4406 3.89598C95.2068 3.9523 96.1774 3.97521 96.2604 3.93894L97.3118 3.96376C97.88 3.93894 98.7718 3.92177 99.3358 3.97331C99.8636 3.94754 100.592 3.96472 100.958 3.93514C101.281 3.94277 101.562 3.98763 101.605 3.95041C101.645 3.95136 101.89 3.91891 102.175 3.88742C102.496 3.93323 102.903 3.9046 103.105 3.90937C103.309 3.87597 103.873 3.92751 104.401 3.90174C104.925 3.95233 105.412 3.92561 105.534 3.92847C105.616 3.8922 106.023 3.86357 106.468 3.87407C106.874 3.84544 107.398 3.89602 107.602 3.86262C107.804 3.86739 108.007 3.87217 108.09 3.8359C108.168 3.87598 108.451 3.88267 108.696 3.85021C108.939 3.85594 109.264 3.8254 109.465 3.86835C109.628 3.83399 110.158 3.77005 110.641 3.81968C111.086 3.83018 111.493 3.80155 111.533 3.8025C111.574 3.80346 111.899 3.77292 112.263 3.78151C112.589 3.75096 113.074 3.76242 113.276 3.76719C113.481 3.73379 113.968 3.70706 114.372 3.71661C114.738 3.68702 115.062 3.69466 115.102 3.69561C115.145 3.65839 115.185 3.65935 115.226 3.6603C115.345 3.70134 116.316 3.72425 117.371 3.67272C117.776 3.68226 118.465 3.66031 118.952 3.63359C119.399 3.60591 119.842 3.65459 119.925 3.61832C120.087 3.62214 120.736 3.59923 121.506 3.57919C121.872 3.54961 122.317 3.56011 122.522 3.5267C122.726 3.4933 123.088 3.54007 123.33 3.54579C123.573 3.55152 123.856 3.5582 123.98 3.52289C124.022 3.48566 124.465 3.53434 124.912 3.50667C125.397 3.51812 125.967 3.45513 126.25 3.46181C126.533 3.46849 126.938 3.47804 127.183 3.44559C127.425 3.45132 127.949 3.5019 128.315 3.47232C128.719 3.48186 129.326 3.49618 129.692 3.46659C130.056 3.47519 130.382 3.44464 130.382 3.44464C130.424 3.40742 131.275 3.38929 132.084 3.40838C132.408 3.41602 132.733 3.38548 132.774 3.38643C132.857 3.35016 133.18 3.3578 133.544 3.36639C133.912 3.29862 134.236 3.30626 134.317 3.30817C134.804 3.28145 135.049 3.249 135.615 3.26236C135.938 3.27 136.262 3.27763 136.305 3.24041C136.388 3.20414 136.668 3.249 136.994 3.21846C137.279 3.18696 137.643 3.19556 137.805 3.19937C137.928 3.16406 138.297 3.09629 138.58 3.10298C138.863 3.10966 139.19 3.04094 139.352 3.04476C139.678 3.01422 140.41 2.95504 140.816 2.92641C141.14 2.93405 141.549 2.86724 141.959 2.76225C142.083 2.72693 142.285 2.73171 142.406 2.73457C142.527 2.73743 142.691 2.70308 142.772 2.70498C142.896 2.66967 142.936 2.67062 143.013 2.74889C143.473 3.21848 144.247 3.12208 145.171 2.53224C146.305 1.79445 146.257 0.455353 145.142 0.1232C144.903 0.0411165 144.422 -0.0466945 144.378 0.028707Z" fill="white"/>
</svg>
