<svg aria-hidden="true" role="img" preserveAspectRatio="xMidYMid meet" width="100%" height="100%" viewBox="0 0 430 100" fill="none" xmlns="http://www.w3.org/2000/svg">
<path d="M424.4 73.2C424.4 70.4 422.4 67.1 421.2 63.4C419.2 57.6 417.2 51.7 414.9 45.9C414.8 45.7 414.8 45.6 414.7 45.4C414 44 412.9 43 411.3 42.3C399.3 36.8 385 34.9 371 33.7C389 33.8 407 34.1 425 34.3C424.4 34.3 420.5 20.9 420.1 20C419.7 19 416 5.80001 414.9 5.80001C380.4 5.40001 345.8 5.00001 311.3 5.10001C244.8 5.30001 178 6.90001 112 14.9C91.2 17.4 70.3 20.3 49.8 24.5C47.7 24.9 45.6 25.4 43.4 25.8L25.7 30.2C24.6 30.5 23.4 30.9 22.3 31.3C17.2 33 10.2 34.9 6.59999 39.1C5.39999 40.5 4.89999 41.9 5.39999 43.7C5.69999 44.7 6.09999 45.7 6.39999 46.8C13 71.7 18.1 75.5 20.1 76.6C27.8 80.7 36.5 82.6 45.1 84.1C88.5 91.8 133.1 93.5 177.2 94.4C221.9 95.3 266.7 94.6 311.3 92.6C332.9 91.6 354.5 90.3 375.9 87.6C390 85.8 407.5 85 420.5 78.5C423.3 76.9 424.4 75.2 424.4 73.2Z" fill="white"/>
</svg>
