<svg fill="#bfbfbf" width="614" height="33" focusable="false" xmlns="http://www.w3.org/2000/svg" preserveAspectRatio="none"><path d="M605.989 1.06s-.68.17-1.53.34c-.85 0-1.87.17-2.38.17-.51.17-1.19.17-1.19.34-.17.17-.34.17-.68.17-.17 0-.51 0-.85.17-.68.17-2.04.34-3.06.51-.51.17-1.53.51-2.38.51-.68.17-1.7.17-2.21.34-.51 0-1.02.17-1.19.17-.17.17-1.02.17-1.87.34-4.76.34-6.63.51-9.52 1.19-.34.17-1.7 0-3.06.17-1.19 0-2.72 0-3.23.17-.68.17-1.7.17-2.38.17-2.89 0-5.95.34-7.99.34-3.06.51-5.44.68-9.18.68-1.7 0-3.74 0-4.25.17-.51 0-1.36.17-1.87.17s-1.19 0-1.36.17c0 0-2.04.17-4.08.17-2.21 0-4.25 0-4.59.17h-6.29c-1.19.17-7.31.51-10.88.51-.68.17-2.72.34-4.42.17-1.7.17-4.25.34-5.78.51-1.36.17-3.4 0-4.25.17-.85 0-2.38.17-3.4 0-1.02 0-2.04 0-2.38.17-.34 0-1.53.17-2.72 0-1.19.17-2.72.34-3.23.51h-2.04c-.68 0-1.36 0-1.36.17-.17 0-1.87.17-4.08 0-2.04.17-4.08 0-4.42.17-.34 0-1.53.17-2.72.17-1.36 0-2.38 0-2.55.17-.17.17-1.53.34-3.06.17-1.36.17-3.23.17-4.08.34-.85-.17-2.38 0-3.4 0-1.02.17-3.06 0-4.25.17-5.78.34-6.63.51-7.48.34-.51.17-2.38.17-4.25.34-4.42 0-5.95.17-6.63.34-.34 0-1.19 0-2.04.17-.85 0-2.89-.17-4.76 0-1.87-.17-4.76 0-6.63 0s-3.74.34-3.91.34c-.17 0-2.21.17-4.42.17-4.93 0-7.82 0-7.99.17-.17.17-2.72.17-5.78.17h-5.95c-.51.17-2.55.17-4.76 0-2.21.17-4.25.34-4.42.51h-3.4c-4.08 0-4.25 0-5.1-.17h-1.36c-.17.17-1.36.17-2.72.34-1.36 0-2.72 0-3.23.17-.34 0-2.04.17-3.74 0-1.53 0-3.23 0-3.4.17h-4.59c-2.04 0-4.08 0-4.25.17-.17 0-1.7.34-3.23.17h-3.57c-.34.17-1.36.17-2.21.17-1.53-.17-8.16 0-9.18.17h-3.74c-1.7 0-3.06.17-3.06.17-.17 0-2.55 0-5.61-.17-6.29.17-6.97.17-11.22.34-2.04.17-4.93 0-6.46 0-9.35 0-14.28 0-14.79.17-.51-.17-4.25.17-8.67 0-4.25 0-8.16-.17-8.5-.17 0 .17-3.91.17-8.84 0-5.27 0-8.67-.17-9.01 0-.17.17-.68.17-1.53 0-.51 0-1.19-.17-1.53.17-.34 0-4.25-.17-8.84-.17-4.59-.17-8.84 0-9.69.17-.85 0-1.7-.17-2.21-.17-3.91-.17-13.43-.17-13.94 0-.17.17-3.57.17-7.65 0-4.08 0-7.48-.17-7.65 0-.17 0-2.72.34-5.95.17-3.06-.17-5.95 0-6.46 0-.68 0-8.84.17-9.69.17-.34-.17-1.02 0-1.53 0-.68 0-2.38.17-3.74 0-1.36 0-3.06.17-3.91.17-.85 0-3.57.17-6.29.17-9.69 0-19.72.34-20.23.34-.68.17-5.95.34-8.67.17-2.55.34-8.16.34-8.84.34-.34.17-1.53.17-2.72.17h-2.72c-.51.17-3.23.17-7.65.34h-1.87c-.17.17-5.1.34-8.5.17-1.53.17-3.06.34-3.4.51-.68.17-5.95.17-10.71.17-1.53 0-3.06 0-3.4.17-.68.17-4.76.51-9.86.51-1.7-.17-3.06 0-3.23 0-.17.17-3.4.17-9.35.34-3.91 0-4.93.17-7.65.17-1.53 0-3.06.17-3.23.17-.34.17-2.04.34-3.57.34-1.7.17-4.93.17-7.14.17s-5.44 0-6.8.17c-1.53.17-3.06.17-3.23.17-.34.17-2.04.17-3.91.34-1.87-.17-3.4 0-3.4 0-.17 0-.85.17-1.36.17-2.89-.17-9.35.17-10.54.17-.68.17-2.21.17-3.4.34-2.38 0-5.1.34-6.29.34-.34 0-1.7.17-2.72.51-4.76 0-7.31 1.87-7.48 5.27-.17 3.4 2.38 5.61 6.29 5.27.68-.17 1.87-.51 2.55-.51.51 0 2.38-.17 3.91-.34 1.53-.17 3.23-.17 3.74-.17.51 0 1.02-.17 1.19-.17.34-.17 1.87-.34 3.74-.17 5.1-.34 7.99-.51 10.03-.51 1.02-.17 2.89-.17 4.08 0 1.02 0 2.21 0 2.38-.17.34-.17 2.21 0 4.59-.34 2.21 0 5.27-.17 6.8 0 1.53-.17 4.59 0 6.63-.17 2.21-.34 4.25-.17 4.59-.34.34-.17 1.53-.17 2.55-.17 1.02.17 2.04.17 2.38 0 .17 0 2.04-.17 4.42 0 2.21-.17 4.76 0 5.61-.34 1.87-.17 6.29-.34 9.69-.34 1.19 0 2.21.17 2.55 0 .17 0 1.53-.17 3.06-.17 1.53-.17 3.23-.17 3.74-.34 1.87-.17 6.12-.17 8.84-.17 1.53-.17 4.76-.17 7.14-.51 2.21.17 5.61 0 7.48 0 1.87-.17 3.57 0 3.91 0 .17-.17 1.36-.17 2.55-.34 1.02 0 2.38 0 2.72-.17 1.7-.17 6.8-.17 9.18-.17 1.36 0 3.23.17 4.25 0 .85-.17 2.38-.34 3.23-.51.85.17 3.06.17 5.1 0 1.87.17 4.59 0 5.95.17 1.36-.17 2.89-.34 3.23-.34.68 0 6.63-.17 14.45-.34 1.53.17 3.23 0 3.74-.17.34-.17 3.4 0 6.8 0 8.16-.17 13.26-.34 14.11-.17.85-.17 12.24-.17 13.77-.17.51.17 1.02.17 1.19 0 .34-.17 3.06-.17 6.63 0 3.23.17 6.29 0 6.46 0 .17-.17 3.91-.17 8.33-.17 4.42.17 7.99.17 8.16.17.17 0 2.38-.34 4.93-.17 5.78.17 13.09.17 14.62 0 .68 0 4.59.17 8.84.17 4.08.17 7.82 0 7.99 0 .34-.17 2.72-.17 5.44 0 5.95.17 13.94.17 16.49 0 2.55.17 10.37-.17 19.04 0 3.57 0 7.14.17 7.65 0 .68-.34 2.04-.34 3.06-.34 1.02.17 2.04 0 2.38 0 .51-.17.68-.17.85 0 .34.17 2.04.34 2.38.17 0 0 1.87-.17 4.25-.34 2.21.17 4.25 0 4.59-.17.68.17 5.78 0 8.5-.17 1.36.17 4.08 0 6.12.17 6.12-.34 9.18-.51 15.64-.34 3.57-.17 6.97-.34 7.48-.51h8.33c2.55 0 4.76-.17 4.93-.34.17 0 .85 0 1.53-.17 3.23.17 7.31.17 7.65 0h4.42c2.38-.17 6.12-.34 8.5-.17 2.21-.17 5.27-.17 6.8-.34 1.36 0 2.55.17 2.72 0 .17 0 1.19-.17 2.38-.34 1.36.17 3.06 0 3.91 0 .85-.17 3.23 0 5.44-.17 2.21.17 4.25 0 4.76 0 .34-.17 2.04-.34 3.91-.34 1.7-.17 3.91 0 4.76-.17.85 0 1.7 0 2.04-.17.34.17 1.53.17 2.55 0 1.02 0 2.38-.17 3.23 0 .68-.17 2.89-.51 4.93-.34 1.87 0 3.57-.17 3.74-.17.17 0 1.53-.17 3.06-.17 1.36-.17 3.4-.17 4.25-.17.85-.17 2.89-.34 4.59-.34 1.53-.17 2.89-.17 3.06-.17.17-.17.34-.17.51-.17.51.17 4.59.17 9.01-.17 1.7 0 4.59-.17 6.63-.34 1.87-.17 3.74 0 4.08-.17.68 0 3.4-.17 6.63-.34 1.53-.17 3.4-.17 4.25-.34.85-.17 2.38 0 3.4 0s2.21 0 2.72-.17c.17-.17 2.04 0 3.91-.17 2.04 0 4.42-.34 5.61-.34 1.19 0 2.89 0 3.91-.17 1.02 0 3.23.17 4.76 0 1.7 0 4.25 0 5.78-.17 1.53 0 2.89-.17 2.89-.17.17-.17 3.74-.34 7.14-.34 1.36 0 2.72-.17 2.89-.17.34-.17 1.7-.17 3.23-.17 1.53-.34 2.89-.34 3.23-.34 2.04-.17 3.06-.34 5.44-.34 1.36 0 2.72 0 2.89-.17.34-.17 1.53 0 2.89-.17 1.19-.17 2.72-.17 3.4-.17.51-.17 2.04-.51 3.23-.51s2.55-.34 3.23-.34c1.36-.17 4.42-.51 6.12-.68 1.36 0 3.06-.34 4.76-.85.51-.17 1.36-.17 1.87-.17s1.19-.17 1.53-.17c.51-.17.68-.17 1.02.17 2.04 2.04 5.27 1.53 9.01-1.19 4.59-3.4 4.08-9.35-.68-10.71-1.02-.34-3.06-.68-3.23-.34z" fill-rule="evenodd"/></svg>
